<svg preserveAspectRatio="none" width="100%" height="100%" overflow="visible" style="display: block;" viewBox="0 0 13.9916 13.9916" fill="none" xmlns="http://www.w3.org/2000/svg">
<g id="Icon">
<path id="Vector" d="M8.74474 12.2426V7.57878C8.74474 7.42416 8.68332 7.27588 8.57399 7.16655C8.46466 7.05722 8.31638 6.99579 8.16176 6.99579H5.82983C5.67521 6.99579 5.52693 7.05722 5.4176 7.16655C5.30827 7.27588 5.24685 7.42416 5.24685 7.57878V12.2426" stroke="var(--stroke-0, #0F6E56)" stroke-width="1.16597" stroke-linecap="round" stroke-linejoin="round"/>
<path id="Vector_2" d="M1.74895 5.82983C1.74891 5.66022 1.78587 5.49264 1.85726 5.33879C1.92865 5.18494 2.03274 5.04851 2.16228 4.93903L6.24316 1.44172C6.45361 1.26385 6.72025 1.16627 6.99579 1.16627C7.27134 1.16627 7.53798 1.26385 7.74843 1.44172L11.8293 4.93903C11.9588 5.04851 12.0629 5.18494 12.1343 5.33879C12.2057 5.49264 12.2427 5.66022 12.2426 5.82983V11.0767C12.2426 11.3859 12.1198 11.6825 11.9011 11.9011C11.6825 12.1198 11.3859 12.2426 11.0767 12.2426H2.91491C2.60568 12.2426 2.30911 12.1198 2.09045 11.9011C1.87179 11.6825 1.74895 11.3859 1.74895 11.0767V5.82983Z" stroke="var(--stroke-0, #0F6E56)" stroke-width="1.16597" stroke-linecap="round" stroke-linejoin="round"/>
</g>
</svg>
