<svg preserveAspectRatio="none" width="100%" height="100%" overflow="visible" style="display: block;" viewBox="0 0 21.9924 21.9924" fill="none" xmlns="http://www.w3.org/2000/svg">
<g id="Icon">
<path id="Vector" d="M10.9962 11.9959C12.6525 11.9959 13.9952 10.6532 13.9952 8.9969C13.9952 7.34061 12.6525 5.99793 10.9962 5.99793C9.33992 5.99793 7.99724 7.34061 7.99724 8.9969C7.99724 10.6532 9.33992 11.9959 10.9962 11.9959Z" stroke="var(--stroke-0, #A8A29F)" stroke-width="1.49948"/>
<path id="Vector_2" d="M10.9962 13.9952C10.9962 13.9952 4.99828 16.9941 4.99828 9.99655C4.99828 8.4058 5.6302 6.8802 6.75503 5.75537C7.87986 4.63054 9.40546 3.99862 10.9962 3.99862C12.587 3.99862 14.1126 4.63054 15.2374 5.75537C16.3622 6.8802 16.9941 8.4058 16.9941 9.99655C16.9941 16.9941 10.9962 13.9952 10.9962 13.9952Z" stroke="var(--stroke-0, #A8A29F)" stroke-width="1.49948"/>
</g>
</svg>
